<svg height="8.040827mm" viewBox="0 0 125.23227 8.0408268" width="125.23227mm" xmlns="http://www.w3.org/2000/svg"><g fill="#00897b" stroke-width=".265" transform="translate(-36.265848 -144.47834)"><path d="m42.084596 145.70824h-2.41845v6.70758h-.987016v-6.70758h-2.413282v-.81649h5.818748z"/><path d="m44.006953 147.5014q.635618-.78031 1.65364-.78031 1.772496 0 1.787999 1.99987v3.69486h-.956011v-3.70002q-.0052-.60462-.279052-.894-.268716-.28939-.842323-.28939-.465086 0-.816485.24805-.351398.24804-.547768.65112v3.98424h-.956011v-7.93748h.956011z"/><path d="m51.200289 152.51917q-1.136878 0-1.85001-.74414-.713133-.7493-.713133-1.99987v-.1757q0-.83199.315226-1.48311.320392-.65629.888831-1.02319.573607-.37207 1.240231-.37207 1.090369 0 1.694981.7183.604613.7183.604613 2.05672v.39791h-3.787871q.02067.82682.48059 1.33841.465086.50643 1.178219.50643.506427 0 .857826-.20671.351398-.2067.614947-.54777l.583942.45476q-.702797 1.08003-2.108392 1.08003zm-.118855-5.0126q-.578774 0-.971514.42375-.39274.41857-.485757 1.17822h2.800854v-.0724q-.04134-.72864-.39274-1.12654-.351398-.40308-.950843-.40308z"/><path d="m59.47366 149.06203q-1.276404-.3669-1.860346-.89917-.578774-.53743-.578774-1.32291 0-.88883.707965-1.46761.713132-.58394 1.85001-.58394.775144 0 1.379757.29972.60978.29972.940508.82682.335895.5271.335895 1.15238h-.997352q0-.68212-.43408-1.0697-.434081-.39273-1.224728-.39273-.733803 0-1.147213.32556-.408242.32039-.408242.894 0 .45991.387572.78031.392739.31522 1.32808.57877.940508.26355 1.467606.58394.532265.31523.785479.73897.258381.42375.258381.99736 0 .91467-.713132 1.4676-.713133.54777-1.906854.54777-.775144 0-1.446936-.29455-.671791-.29973-1.038693-.81649-.361734-.51676-.361734-1.17305h.997352q0 .68213.50126 1.08003.506427.39274 1.348751.39274.785479 0 1.204057-.32039.418577-.32039.418577-.87333 0-.55294-.387572-.85266-.387572-.30489-1.405594-.59944z"/><path d="m66.837527 151.86288q-.558104.65629-1.638138.65629-.893999 0-1.364253-.51676-.465087-.52193-.470254-1.53996v-3.638h.956011v3.61217q0 1.27123 1.033525 1.27123 1.095537 0 1.457271-.81648v-4.06692h.956011v5.59137h-.909502z"/><path d="m72.475407 150.93271q0-.38757-.294555-.59945-.289387-.21704-1.018023-.37207-.723467-.15502-1.15238-.37206-.423746-.21704-.630451-.51677-.201537-.29972-.201537-.71313 0-.68729.578774-1.16272.583942-.47542 1.488277-.47542.950843 0 1.539952.49093.594277.49092.594277 1.25573h-.961178q0-.39274-.335896-.67696-.330728-.28422-.837155-.28422-.521931 0-.816486.22738-.294554.22737-.294554.59427 0 .34624.273884.52193.273884.1757.987017.3359.7183.1602 1.162716.3824.444416.22221.656288.53744.217041.31006.217041.75964 0 .74931-.599445 1.20406-.599445.44958-1.555456.44958-.671791 0-1.188554-.23771-.516763-.23771-.811317-.66146-.289387-.42891-.289387-.925h.956011q.02584.48059.382404.76481.361734.27905.950843.27905.542601 0 .868162-.21704.330728-.22221.330728-.58911z"/><path d="m75.973892 145.47053v1.35392h1.043861v.73897h-1.043861v3.46747q0 .3359.139526.50643.139526.16536.475422.16536.165364 0 .454751-.062v.77515q-.377237.10335-.733803.10335-.640786 0-.966346-.38757-.325561-.38757-.325561-1.10071v-3.46747h-1.018022v-.73897h1.018022v-1.35392z"/><path d="m81.585934 152.41582q-.08268-.16537-.134358-.58911-.666624.69246-1.591629.69246-.82682 0-1.359086-.46509-.527098-.47025-.527098-1.18855 0-.87333.661456-1.35392.666624-.48576 1.870681-.48576h.930173v-.43924q0-.50126-.299722-.79582-.299723-.29972-.883664-.29972-.511595 0-.857826.25838-.346231.25838-.346231.62528h-.961179q0-.41857.294555-.80615.299722-.39274.80615-.62011.511595-.22738 1.121375-.22738.966346 0 1.514114.48576.547769.48059.568439 1.32808v2.57348q0 .76997.19637 1.22473v.0827zm-1.586461-.72864q.449583 0 .852658-.23254.403075-.23254.583942-.60461v-1.14722h-.749306q-1.756993 0-1.756993 1.02836 0 .44958.299723.7028.299722.25321.769976.25321z"/><path d="m84.929389 152.41582h-.956011v-5.59137h.956011zm-1.033525-7.07448q0-.23255.139526-.39274.144694-.1602.423745-.1602.279052 0 .423746.1602.144693.16019.144693.39274 0 .23254-.144693.38757-.144694.15503-.423746.15503-.279051 0-.423745-.15503-.139526-.15503-.139526-.38757z"/><path d="m87.363341 146.82445.03101.70279q.640785-.80615 1.674311-.80615 1.772496 0 1.787999 1.99987v3.69486h-.956011v-3.70002q-.0052-.60462-.279052-.894-.268717-.28939-.842323-.28939-.465087 0-.816485.24805-.351399.24804-.547769.65112v3.98424h-.956011v-5.59137z"/><path d="m95.750401 152.41582q-.08268-.16537-.134358-.58911-.666624.69246-1.591629.69246-.82682 0-1.359086-.46509-.527098-.47025-.527098-1.18855 0-.87333.661456-1.35392.666624-.48576 1.870681-.48576h.930173v-.43924q0-.50126-.299722-.79582-.299723-.29972-.883664-.29972-.511596 0-.857827.25838-.346231.25838-.346231.62528h-.961178q0-.41857.294555-.80615.299722-.39274.806149-.62011.511595-.22738 1.121375-.22738.966347 0 1.514115.48576.547769.48059.568439 1.32808v2.57348q0 .76997.19637 1.22473v.0827zm-1.586461-.72864q.449583 0 .852658-.23254.403075-.23254.583942-.60461v-1.14722h-.749306q-1.756993 0-1.756993 1.02836 0 .44958.299722.7028.299723.25321.769977.25321z"/><path d="m102.78871 149.68214q0 1.28157-.58911 2.06189-.58911.77514-1.58129.77514-1.059367 0-1.638142-.74931l-.04651.64596h-.878497v-7.93748h.956011v2.96105q.578774-.7183 1.596796-.7183 1.01802 0 1.5968.76998.58394.76998.58394 2.10839zm-.95601-.10852q0-.97668-.37724-1.50894-.37724-.53227-1.0852-.53227-.945676 0-1.359086.8785v2.41845q.439249.87849 1.369426.87849.68729 0 1.06969-.53226.38241-.53227.38241-1.60197z"/><path d="m105.03146 152.41582h-.95602v-7.93748h.95602z"/><path d="m108.88134 152.51917q-1.13688 0-1.85001-.74414-.71313-.7493-.71313-1.99987v-.1757q0-.83199.31522-1.48311.3204-.65629.88883-1.02319.57361-.37207 1.24024-.37207 1.09036 0 1.69498.7183.60461.7183.60461 2.05672v.39791h-3.78787q.0207.82682.48059 1.33841.46508.50643 1.17822.50643.50642 0 .85782-.20671.3514-.2067.61495-.54777l.58394.45476q-.7028 1.08003-2.10839 1.08003zm-.11885-5.0126q-.57878 0-.97152.42375-.39274.41857-.48576 1.17822h2.80086v-.0724q-.0413-.72864-.39274-1.12654-.3514-.40308-.95084-.40308z"/><path d="m119.0874 149.09303h-3.15742v3.32279h-.99218v-7.52407h4.6612v.81649h-3.66902v2.57348h3.15742z"/><path d="m120.27596 149.56845q0-.82165.32039-1.47794.32556-.65628.89917-1.01285.57877-.35657 1.31774-.35657 1.14205 0 1.84484.79065.70797.79065.70797 2.10322v.0672q0 .81649-.31523 1.46761-.31005.64595-.894 1.00769-.57877.36173-1.33324.36173-1.13688 0-1.84485-.79065-.70279-.79064-.70279-2.09289zm.96117.11369q0 .93018.42892 1.49345.43408.56327 1.15755.56327.72863 0 1.15754-.56844.42892-.57361.42892-1.60197 0-.91983-.43925-1.48827-.43408-.57361-1.15755-.57361-.70796 0-1.14204.56327-.43409.56327-.43409 1.6123z"/><path d="m126.31175 149.56845q0-.82165.32039-1.47794.32556-.65628.89917-1.01285.57877-.35657 1.31774-.35657 1.14205 0 1.84484.79065.70797.79065.70797 2.10322v.0672q0 .81649-.31523 1.46761-.31005.64595-.894 1.00769-.57877.36173-1.33324.36173-1.13688 0-1.84485-.79065-.70279-.79064-.70279-2.09289zm.96117.11369q0 .93018.42892 1.49345.43408.56327 1.15755.56327.72863 0 1.15754-.56844.42892-.57361.42892-1.60197 0-.91983-.43925-1.48827-.43408-.57361-1.15755-.57361-.70796 0-1.14205.56327-.43408.56327-.43408 1.6123z"/><path d="m132.36821 149.57362q0-1.28674.60978-2.06705.60978-.78548 1.59679-.78548.98185 0 1.55546.67179v-2.91454h.95601v7.93748h-.8785l-.0465-.59945q-.5736.7028-1.59679.7028-.97152 0-1.58646-.79581-.60978-.79582-.60978-2.07739zm.95601.10852q0 .95085.39274 1.48828.39274.53743 1.0852.53743.9095 0 1.32808-.81648v-2.56831q-.42891-.79065-1.31775-.79065-.70279 0-1.09553.5426-.39274.5426-.39274 1.60713z"/><path d="m141.82496 150.93271q0-.38757-.29456-.59945-.28938-.21704-1.01802-.37207-.72347-.15502-1.15238-.37206-.42374-.21704-.63045-.51677-.20154-.29972-.20154-.71313 0-.68729.57878-1.16272.58394-.47542 1.48827-.47542.95085 0 1.53996.49093.59427.49092.59427 1.25573h-.96118q0-.39274-.33589-.67696-.33073-.28422-.83716-.28422-.52193 0-.81648.22738-.29456.22737-.29456.59427 0 .34624.27389.52193.27388.1757.98701.3359.7183.1602 1.16272.3824.44442.22221.65629.53744.21704.31006.21704.75964 0 .74931-.59944 1.20406-.59945.44958-1.55546.44958-.67179 0-1.18855-.23771-.51677-.23771-.81132-.66146-.28939-.42891-.28939-.925h.95601q.0258.48059.38241.76481.36173.27905.95084.27905.5426 0 .86816-.21704.33073-.22221.33073-.58911z"/><path d="m145.32344 145.47053v1.35392h1.04386v.73897h-1.04386v3.46747q0 .3359.13953.50643.13953.16536.47542.16536.16537 0 .45475-.062v.77515q-.37723.10335-.7338.10335-.64079 0-.96635-.38757-.32556-.38757-.32556-1.10071v-3.46747h-1.01802v-.73897h1.01802v-1.35392z"/><path d="m147.12695 149.56845q0-.82165.32039-1.47794.32556-.65628.89917-1.01285.57877-.35657 1.31774-.35657 1.14205 0 1.84484.79065.70797.79065.70797 2.10322v.0672q0 .81649-.31523 1.46761-.31005.64595-.894 1.00769-.57877.36173-1.33324.36173-1.13688 0-1.84485-.79065-.70279-.79064-.70279-2.09289zm.96118.11369q0 .93018.42891 1.49345.43408.56327 1.15755.56327.72863 0 1.15754-.56844.42892-.57361.42892-1.60197 0-.91983-.43925-1.48827-.43408-.57361-1.15755-.57361-.70796 0-1.14204.56327-.43408.56327-.43408 1.6123z"/><path d="m156.11862 147.68227q-.21704-.0362-.47026-.0362-.9405 0-1.2764.80098v3.96874h-.95601v-5.59137h.93017l.0155.64595q.47025-.74931 1.33324-.74931.27905 0 .42375.0724z"/><path d="m159.31738 152.51917q-1.13688 0-1.85001-.74414-.71314-.7493-.71314-1.99987v-.1757q0-.83199.31523-1.48311.32039-.65629.88883-1.02319.57361-.37207 1.24023-.37207 1.09037 0 1.69498.7183.60461.7183.60461 2.05672v.39791h-3.78787q.0207.82682.48059 1.33841.46509.50643 1.17822.50643.50643 0 .85783-.20671.3514-.2067.61495-.54777l.58394.45476q-.7028 1.08003-2.10839 1.08003zm-.11886-5.0126q-.57877 0-.97151.42375-.39274.41857-.48576 1.17822h2.80085v-.0724q-.0413-.72864-.39274-1.12654-.3514-.40308-.95084-.40308z"/></g></svg>